<?xml version="1.0" encoding="UTF-8" standalone="no"?><!DOCTYPE svg PUBLIC "-//W3C//DTD SVG 1.1//EN" "http://www.w3.org/Graphics/SVG/1.1/DTD/svg11.dtd"><svg width="100%" height="100%" viewBox="0 0 492 492" version="1.1" xmlns="http://www.w3.org/2000/svg" xmlns:xlink="http://www.w3.org/1999/xlink" xml:space="preserve" xmlns:serif="http://www.serif.com/" style="fill-rule:evenodd;clip-rule:evenodd;stroke-linejoin:round;stroke-miterlimit:1.41421;"><path d="M57.718,435.01l12.742,16.228c4.01,5.068 9.345,7.86 15.047,7.86c5.699,0 11.041,-2.792 15.051,-7.86l145.353,-183.848l145.521,184.052c4.003,5.068 9.345,7.856 15.044,7.856c5.699,0 11.044,-2.788 15.051,-7.856l12.745,-16.128c8.299,-10.488 8.299,-27.572 0,-38.06l-173.26,-219.924c-4.003,-5.064 -9.339,-8.632 -15.088,-8.632l-0.067,0c-5.702,0 -11.037,3.572 -15.041,8.632l-173.098,219.328c-4.011,5.064 -6.212,12.016 -6.218,19.224c0,7.212 2.207,14.068 6.218,19.128Z" style="fill:#222;fill-rule:nonzero;"/></svg>